<svg xmlns="http://www.w3.org/2000/svg" viewBox="0 0 1631.07 642.37"><defs><style>.cls-1{fill:#22496b;stroke:#707070;}</style></defs><title>Asset 1</title><g id="Layer_2" data-name="Layer 2"><g id="Layer_1-2" data-name="Layer 1"><path id="Subtraction_1" data-name="Subtraction 1" class="cls-1" d="M1630.57,641.87h0c-20.87-4.14-41.24-8-60.54-11.5-18.68-3.39-36.92-6.52-54.2-9.31-16.67-2.69-33-5.15-48.43-7.31-14.86-2.07-29.41-3.93-43.23-5.52-13.22-1.52-26.21-2.84-38.6-3.93-11.77-1-23.39-1.89-34.55-2.55-10.51-.62-21-1.09-31.07-1.39-9.39-.27-18.87-.41-28.15-.41-15.49,0-31,.38-46.31,1.08-15,.67-29.28,1.58-41.92,2.39l-1.31.08c-13.13.84-26.71,1.7-40.5,2.33-7.4.34-14.3.59-21.08.77-7.59.19-14.86.28-22.21.29-12.81,0-25.61-.3-38.31-.89-6.91-.31-14-.72-21.13-1.21-7.39-.51-15-1.13-22.73-1.84-9.82-.9-19.49-2-28.94-3.27-17.15-2.33-33.48-5.31-48.7-8.89-6.93-1.62-13.86-3.42-20.61-5.35C911.94,578,890.88,569.33,870.52,561h0c-12-4.93-23.37-9.59-35.66-14-6.6-2.37-12.84-4.45-19.07-6.34-6.59-2-13.53-3.9-20.76-5.64s-15.1-3.35-23.13-4.73c-8.42-1.45-17.15-2.66-26.13-3.63-9.74-1-19.7-1.82-29.8-2.32-11.3-.55-22.7-.83-34.12-.82-13.56,0-27.11.34-40.55.95q-23.52,1.08-46.62,3C534.36,532.34,485.73,535.82,446,538c-19.7,1.09-37.11,1.88-53.25,2.41-15.65.51-29.64.76-42.77.76-55.3,0-86.37-4.49-129.36-10.71-6.86-1-14-2-21.56-3.09a692.92,692.92,0,0,0-95.76-6.2A833.41,833.41,0,0,0,.5,527.35V.61c20.87,4.14,41.24,8,60.53,11.5,18.69,3.39,36.92,6.52,54.2,9.31,16.68,2.69,33,5.15,48.43,7.31,14.86,2.07,29.4,3.93,43.23,5.51,13.22,1.52,26.21,2.85,38.6,3.94,11.77,1,23.4,1.89,34.55,2.55,10.5.62,20.95,1.09,31.07,1.38,9.4.28,18.87.42,28.15.42,15.49,0,31-.38,46.31-1.08,14.93-.67,29.27-1.58,41.92-2.39L428.8,39c13.13-.84,26.7-1.7,40.5-2.33,7.4-.34,14.3-.59,21.08-.77,7.59-.19,14.86-.28,22.21-.28,12.81,0,25.61.29,38.31.88,6.92.31,14,.72,21.14,1.21,7.4.51,15,1.13,22.73,1.84q14.73,1.35,28.94,3.27c17.14,2.33,33.48,5.31,48.69,8.89,6.94,1.62,13.87,3.43,20.61,5.35,26.11,7.46,47.17,16.11,67.54,24.47h0c12,4.94,23.37,9.6,35.66,14,6.61,2.38,12.85,4.45,19.07,6.34q9.9,3,20.77,5.64c7.37,1.77,15.1,3.35,23.12,4.73,8.42,1.45,17.16,2.66,26.13,3.63,9.74,1,19.71,1.82,29.8,2.32,11.3.55,22.71.83,34.12.82q20.35,0,40.56-1,23.52-1.08,46.62-3c60.3-4.93,108.93-8.41,148.68-10.63,19.69-1.09,37.11-1.88,53.25-2.41,15.65-.51,29.64-.76,42.77-.76,55.3,0,86.37,4.49,129.36,10.71,6.84,1,13.91,2,21.56,3.09a692.66,692.66,0,0,0,95.75,6.2,833.11,833.11,0,0,0,102.79-6.14V641.87Z"/></g></g></svg>